<?xml version="1.0" encoding="UTF-8"?>
<svg version="1.1" xmlns="http://www.w3.org/2000/svg" width="1024" height="1024">
<path d="M0 0 C337.92 0 675.84 0 1024 0 C1024 337.92 1024 675.84 1024 1024 C686.08 1024 348.16 1024 0 1024 C0 686.08 0 348.16 0 0 Z " fill="#1A65CC" transform="translate(0,0)"/>
<path d="M0 0 C0.83966309 0.14405273 1.67932617 0.28810547 2.54443359 0.43652344 C7.04456908 1.22202106 11.52661738 2.07243096 16 3 C16 3.66 16 4.32 16 5 C17.27875 5.268125 18.5575 5.53625 19.875 5.8125 C21.58475104 6.20216419 23.29305648 6.59821569 25 7 C25.74636719 7.17144531 26.49273438 7.34289062 27.26171875 7.51953125 C34.99169239 9.55373484 41.88407561 13.23275207 48.92871094 16.91943359 C50.93753826 17.96741447 52.95567391 18.99504604 54.9765625 20.01953125 C70.16301086 27.80253811 86.87868156 37.83089545 93.3125 54.375 C95.26116741 64.64979179 93.83406677 73.83639609 88.25 82.75 C82.80988377 90.30497803 76.02049589 95.38294255 67 98 C52.70559915 99.7231196 45.3871225 95.93566451 34.4609375 87.453125 C30.57026511 84.58291908 26.39650714 82.31204372 22.125 80.0625 C21.05475586 79.49656128 21.05475586 79.49656128 19.96289062 78.91918945 C16.04801707 76.90247818 12.21707862 75.30976119 8 74 C6.80890625 73.505 6.80890625 73.505 5.59375 73 C2.29319142 71.72749549 -1.07354742 70.85328002 -4.5 70 C-5.13164063 69.835 -5.76328125 69.67 -6.4140625 69.5 C-18.06571949 66.57566256 -29.7632536 65.48966944 -41.75 65.4375 C-42.47633636 65.43420685 -43.20267273 65.4309137 -43.95101929 65.42752075 C-68.47796906 65.45381401 -92.06922989 70.95057981 -114 82 C-114.82226074 82.39783691 -115.64452148 82.79567383 -116.49169922 83.20556641 C-121.9670854 85.87483023 -127.15356162 88.79113846 -132.25 92.125 C-132.97018311 92.59220459 -133.69036621 93.05940918 -134.43237305 93.54077148 C-140.03396219 97.23265796 -145.34309402 101.22380566 -150.53417969 105.47119141 C-152.71142988 107.24771665 -154.7065872 108.86266862 -157.26171875 110.05859375 C-159.56421732 111.30556489 -159.85216483 112.66690026 -161 115 C-162.71183854 116.7261996 -164.46902835 118.40772019 -166.25 120.0625 C-182.97310595 136.24929643 -194.2569647 156.6641155 -203 178 C-203.49040771 179.15604736 -203.49040771 179.15604736 -203.99072266 180.33544922 C-211.39612286 198.14259385 -212.4974001 216.26193732 -212.5625 235.3125 C-212.57108032 236.23609314 -212.57966064 237.15968628 -212.58850098 238.11126709 C-212.88904513 284.19572656 -192.28932802 325.10234203 -161 358 C-160.41992188 358.63292969 -159.83984375 359.26585937 -159.2421875 359.91796875 C-137.13305785 383.30476167 -107.23303326 397.06697111 -76.43676758 404.38916016 C-75.20349731 404.6837915 -75.20349731 404.6837915 -73.9453125 404.984375 C-73.20812988 405.15678711 -72.47094727 405.32919922 -71.71142578 405.50683594 C-70 406 -70 406 -69 407 C-66.41823751 407.55237709 -63.84922996 408.04502214 -61.25 408.5 C-60.20392578 408.69529297 -60.20392578 408.69529297 -59.13671875 408.89453125 C-47.65474138 410.92801204 -36.07141864 411.18135424 -24.4375 411.1875 C-23.21353516 411.19974609 -21.98957031 411.21199219 -20.72851562 411.22460938 C-13.9353884 411.23545524 -7.57640354 410.75749886 -0.90429688 409.49291992 C2.0219593 408.99627305 4.87882884 408.75648262 7.83984375 408.5703125 C14.91142413 408.03916795 21.67384973 406.5104795 28.5625 404.875 C29.21420166 404.72270935 29.86590332 404.5704187 30.53735352 404.41351318 C40.42191413 402.09230398 49.90196763 399.19492635 59.3125 395.3828125 C62.6020783 394.14922064 65.5255841 393.42344444 69 393 C69 392.34 69 391.68 69 391 C69.680625 390.731875 70.36125 390.46375 71.0625 390.1875 C83.88707374 385.00309785 96.03700143 378.94457855 107.59667969 371.32543945 C115.4222959 366.23065841 122.68289713 364.80766407 132 366 C142.18343525 369.46015152 150.43554372 375.7203223 155.9921875 384.91015625 C160.10628026 393.44131759 160.72190463 402.80200041 157.75 411.7734375 C151.15984265 425.83854184 141.10126977 432.74726793 128 440 C126.90171875 440.61875 125.8034375 441.2375 124.671875 441.875 C110.92015896 449.46215368 96.69777487 455.52466312 82 461 C81.14462646 461.32186279 80.28925293 461.64372559 79.40795898 461.9753418 C63.85876162 467.74584942 47.88140431 471.89262762 31.5625 474.8125 C29.93260132 475.10435181 29.93260132 475.10435181 28.26977539 475.40209961 C24.85189364 475.98286101 21.43159257 476.50656233 18 477 C17.34993988 477.09355774 16.69987976 477.18711548 16.03012085 477.2835083 C3.92122323 478.97012203 -8.06934204 479.31207226 -20.28491211 479.26074219 C-23.29887166 479.25004835 -26.31223053 479.26069253 -29.32617188 479.2734375 C-41.59099685 479.28162113 -53.64090862 478.60466028 -65.82853699 477.23826599 C-67.88268013 477.01287304 -69.93738265 476.81246649 -71.99511719 476.62304688 C-97.17202315 474.22092983 -121.31379083 463.53926253 -144 453 C-145.45019531 452.33871094 -145.45019531 452.33871094 -146.9296875 451.6640625 C-154.33859561 448.14670208 -161.20208571 443.64695982 -168.09277344 439.22265625 C-169.76681726 438.1494853 -171.44917053 437.08929932 -173.1328125 436.03125 C-203.71400029 416.36596303 -228.83994862 388.68862581 -248 358 C-248.37044434 357.41025391 -248.74088867 356.82050781 -249.12255859 356.21289062 C-259.62668232 339.23222697 -267.28883737 320.09670006 -273 301 C-273.35360596 299.90510254 -273.35360596 299.90510254 -273.71435547 298.78808594 C-275.75174286 292.34467246 -277.03617734 285.91359469 -278.125 279.25 C-278.37830078 277.74759766 -278.37830078 277.74759766 -278.63671875 276.21484375 C-279.09717004 273.47751524 -279.54959409 270.73899603 -280 268 C-280.17869629 267.10885498 -280.35739258 266.21770996 -280.54150391 265.29956055 C-281.16140205 260.83847244 -281.18245263 256.44056192 -281.203125 251.94140625 C-281.20882507 250.96123032 -281.21452515 249.98105438 -281.22039795 248.97117615 C-281.22983072 246.89086985 -281.23637507 244.81054872 -281.24023438 242.73022461 C-281.24978664 239.63170904 -281.28076014 236.53390256 -281.3125 233.43554688 C-281.41887129 213.51051486 -279.28010162 194.38862642 -273.65722656 175.25097656 C-272.99510117 172.9832217 -272.36576068 170.70831563 -271.7421875 168.4296875 C-269.75627271 161.28055021 -267.61628847 154.45777224 -264.30859375 147.78515625 C-263.14858702 145.31624641 -262.14788521 142.84953021 -261.16015625 140.30859375 C-250.07710804 112.36442112 -231.54596776 88.59624088 -211 67 C-210.31679688 66.27554688 -209.63359375 65.55109375 -208.9296875 64.8046875 C-203.67677744 59.3816427 -197.91478756 54.68026123 -192 50 C-191.03449219 49.21753906 -190.06898438 48.43507813 -189.07421875 47.62890625 C-168.51763072 31.30378869 -144.87939724 17.93374204 -119.875 9.875 C-118.34552734 9.37419922 -118.34552734 9.37419922 -116.78515625 8.86328125 C-114.7745007 8.20510774 -112.76214772 7.5520948 -110.74804688 6.90454102 C-109.10967892 6.36525945 -107.47755637 5.80527643 -105.86132812 5.20288086 C-98.08711697 2.34002948 -89.89789126 1.12927032 -81.75 -0.1875 C-80.51162384 -0.38785355 -80.51162384 -0.38785355 -79.24822998 -0.59225464 C-52.93931253 -4.74007398 -26.25918169 -4.55396866 0 0 Z " fill="#F9F9FA" transform="translate(550,280)"/>
<path d="M0 0 C15.32383251 -0.38007251 34.64313743 3.45654374 46.73828125 13.66015625 C54.0169769 20.77258728 57.37691836 26.99450982 57.65234375 37.1640625 C57.7152102 45.89184398 55.21843929 53.45061081 50.08984375 60.5390625 C41.11574148 68.91489128 32.00152013 71.57858816 19.94140625 71.3671875 C17.03448412 71.20603617 14.62371157 70.91645921 11.83984375 70.1640625 C0.58710344 67.25533529 -10.65437311 68.35128648 -20.72265625 74.1640625 C-27.60510698 78.51563078 -32.16585841 85.49366898 -34.72265625 93.1640625 C-35.44768237 104.96653684 -35.53717081 115.12856465 -28.09765625 124.9140625 C-19.24310474 134.39469341 -7.35321358 137.68183155 5.11987305 138.30639648 C22.89565111 138.87100335 41.06931767 138.66437488 57.18359375 130.21484375 C64.78432488 126.40029772 75.11724848 127.11907896 83.02734375 129.6015625 C90.76413565 132.80615086 97.41602959 138.72205294 101.27734375 146.1640625 C104.6933669 154.5665624 104.53418474 164.46003776 101.71484375 173.0390625 C97.36970225 183.29969488 89.84393906 190.90347063 79.640625 195.359375 C77.964232 196.02114399 76.28018292 196.66377443 74.58984375 197.2890625 C73.23802002 197.79771851 73.23802002 197.79771851 71.85888672 198.31665039 C60.95785209 202.24196667 49.6926705 204.18807792 38.23828125 205.69921875 C35.39771735 205.84739429 35.39771735 205.84739429 34.27734375 207.1640625 C31.85633595 207.2905159 29.46552182 207.3523249 27.04296875 207.3671875 C26.30161179 207.37415649 25.56025482 207.38112549 24.7964325 207.38830566 C22.3733465 207.40584928 19.95049087 207.41204021 17.52734375 207.4140625 C16.7076712 207.41506958 15.88799866 207.41607666 15.04348755 207.41711426 C-0.65225412 207.40401537 -16.68505271 207.28512949 -31.390625 201.125 C-33.80756388 200.12907544 -36.19711891 199.45677844 -38.72265625 198.7890625 C-60.9018524 192.22262332 -80.31430733 173.67917953 -91.44287109 153.87841797 C-104.42471085 129.68773391 -108.09260297 103.8047275 -101.72265625 77.1640625 C-101.43261719 75.85115234 -101.43261719 75.85115234 -101.13671875 74.51171875 C-94.85431422 49.99402314 -76.46392613 27.41106378 -54.9909668 14.57128906 C-42.00943769 7.12814791 -27.67667045 1.20869267 -12.59765625 0.5390625 C-11.86119873 0.50329102 -11.12474121 0.46751953 -10.3659668 0.43066406 C-6.91113673 0.27421893 -3.45505231 0.15226883 0 0 Z " fill="#F8F9FA" transform="translate(510.72265625,414.8359375)"/>
</svg>
